<svg width="24" height="21" viewBox="0 0 24 21" fill="none" xmlns="http://www.w3.org/2000/svg">
<path d="M11.8397 5.83628V10.502C11.8397 10.817 11.9644 11.1086 12.1684 11.3302L15.3302 14.5846C15.7722 15.0395 16.4862 15.0395 16.9282 14.5846C17.3701 14.1297 17.3701 13.3948 16.9282 12.9399L14.095 10.0238V5.83628C14.095 5.19474 13.585 4.66984 12.9617 4.66984C12.3497 4.66984 11.8397 5.19474 11.8397 5.83628ZM13.2677 0.00408061C7.49926 -0.159221 2.77347 4.59985 2.77347 10.502H0.744894C0.234917 10.502 -0.0144054 11.1319 0.348245 11.4935L3.5101 14.7479C3.73676 14.9812 4.08808 14.9812 4.31473 14.7479L7.48792 11.4935C7.82791 11.1319 7.57859 10.502 7.06861 10.502H5.04003C5.04003 5.96459 8.66654 2.26697 13.0863 2.33696C17.2908 2.39528 20.838 6.04624 20.906 10.3854C20.974 14.9462 17.3928 18.6671 12.973 18.6671C11.1711 18.6671 9.5165 18.0489 8.17923 16.9991C7.72591 16.6492 7.09127 16.6842 6.69463 17.1041C6.20731 17.6057 6.25265 18.4338 6.79662 18.8538C8.50788 20.1952 10.6498 21 12.973 21C18.7074 21 23.3312 16.1359 23.1726 10.2104C23.0252 4.72816 18.5828 0.155718 13.2677 0.00408061Z" fill="#909090"/>
</svg>
