<svg width="40" height="40" viewBox="0 0 40 40" fill="none" xmlns="http://www.w3.org/2000/svg">
<path fill-rule="evenodd" clip-rule="evenodd" d="M8.88857 36.6296C11.5284 38.3935 14.5403 39.4972 17.6717 39.8643C18.9517 40.0143 20 38.9555 20 37.6668C20 36.378 18.9491 35.352 17.675 35.1582C10.31 34.0379 4.66668 27.678 4.66668 20C4.66668 11.5316 11.5317 4.66666 20 4.66666C28.4684 4.66666 35.3333 11.5316 35.3333 20C35.3333 20.0001 35.3335 20.0002 35.3336 20.0002H37.6667C38.9553 20.0002 40.014 18.952 39.864 17.6721C39.497 14.5407 38.3932 11.5286 36.6294 8.88882C34.4317 5.59984 31.3082 3.03639 27.6536 1.52263C23.9991 0.00887983 19.9778 -0.387187 16.0982 0.384516C12.2186 1.15622 8.65489 3.06103 5.85784 5.85808C3.06079 8.65513 1.15598 12.2188 0.384273 16.0984C-0.387431 19.978 0.00863481 23.9994 1.52239 27.6539C3.03614 31.3084 5.59959 34.432 8.88857 36.6296Z" fill="#FFCA5C"/>
</svg>
