<svg width="49" height="48" viewBox="0 0 49 48" fill="none" xmlns="http://www.w3.org/2000/svg">
<path d="M18.5154 15.4014C16.5203 15.4014 14.4636 16.3418 13.5935 17.8271C13.4441 18.082 13.4177 18.2402 13.4177 18.6709V30.9668C13.4177 31.5645 13.7693 31.8984 14.3757 31.8984C14.7009 31.8984 14.9294 31.793 15.2634 31.5732C16.3181 30.7559 17.6628 30.334 18.9988 30.334C20.3083 30.334 21.5476 30.7734 22.4968 31.5645C22.6111 31.6699 22.7517 31.7139 22.866 31.7139C23.0857 31.7139 23.2615 31.5557 23.2615 31.3096V18.0469C23.2615 17.8008 23.2351 17.7129 23.0593 17.4492C22.2068 16.1836 20.4578 15.4014 18.5154 15.4014ZM29.3259 15.4014C27.3835 15.4014 25.6345 16.1836 24.782 17.4492C24.6062 17.7129 24.5798 17.8008 24.5798 18.0469V31.3096C24.5798 31.5557 24.7556 31.7139 24.9753 31.7139C25.0896 31.7139 25.2302 31.6699 25.3445 31.5645C26.2937 30.7734 27.533 30.334 28.8425 30.334C30.1785 30.334 31.5232 30.7559 32.5779 31.5732C32.9119 31.793 33.1404 31.8984 33.4656 31.8984C34.0632 31.8984 34.4236 31.5645 34.4236 30.9668V18.6709C34.4236 18.2402 34.3884 18.0732 34.2478 17.8271C33.3777 16.3418 31.321 15.4014 29.3259 15.4014Z" fill="white"/>
</svg>
